<svg id="Livello_1" data-name="Livello 1" xmlns="http://www.w3.org/2000/svg" viewBox="0 0 424.57 80.7"><defs><style>.cls-1{fill:#000d25;}.cls-2{fill:#ef476f;}</style></defs><path class="cls-1" d="M61.93,133.79V74.38a.11.11,0,0,0-.11-.1H43.32a5.48,5.48,0,0,1-5.6-5.41C37.79,65.93,40.13,64,43.2,64H92.06a5.39,5.39,0,0,1,5.48,5.47,5,5,0,0,1-5.38,4.86H73.54a.11.11,0,0,0-.1.1v59.41a5.53,5.53,0,0,1-5.81,5.49A5.43,5.43,0,0,1,61.93,133.79Z" transform="translate(-37.72 -59.65)"/><path class="cls-1" d="M97.11,111.51c0-18.93,13.12-30.13,26.9-30.13s26.36,11.73,26.47,27.55a5.34,5.34,0,0,1-5.49,4.95H107.77a.11.11,0,0,0-.1.12c1.22,10.26,8.84,16.45,18.27,16.45,7.64,0,11.2-2.9,13.78-5.06a6.25,6.25,0,0,1,3.23-1,4.54,4.54,0,0,1,4.51,4.51,5.72,5.72,0,0,1-2.36,4.31c-3.88,3.77-11.3,7.1-18.73,7.1C108.51,140.35,97.11,128.19,97.11,111.51ZM108,104.6a.11.11,0,0,0,.1.13h31V104c-.75-7.42-7.85-12.59-15.06-12.59S110,94.91,108,104.6Z" transform="translate(-37.72 -59.65)"/><path class="cls-1" d="M218.8,87.3v46.3a5.59,5.59,0,0,1-5.63,5.67,5.22,5.22,0,0,1-5.13-5.48v-2.26a23,23,0,0,1-17.86,8.82c-14.85,0-26.15-12.26-26.15-29.48s11.41-29.49,25.82-29.49A24.51,24.51,0,0,1,208,89.46V87.3a5.38,5.38,0,1,1,10.76,0Zm-10.33,23.57c0-11-6.89-19.59-17-19.59s-17,8.4-17,19.59,6.88,19.58,17,19.58S208.47,122.06,208.47,110.87Z" transform="translate(-37.72 -59.65)"/><path class="cls-1" d="M251.72,133.79V74.38a.1.1,0,0,0-.1-.1h-18.5a5.5,5.5,0,0,1-5.61-5.41c.07-2.94,2.42-4.92,5.49-4.92h48.85a5.39,5.39,0,0,1,5.48,5.47A5,5,0,0,1,282,74.28H263.34a.11.11,0,0,0-.11.1v59.41a5.52,5.52,0,0,1-5.81,5.49A5.43,5.43,0,0,1,251.72,133.79Z" transform="translate(-37.72 -59.65)"/><path class="cls-1" d="M337.9,88.36v28.1c0,15-8.71,23.78-23.88,23.78s-23.68-8.82-23.68-23.78V88.36a5.58,5.58,0,0,1,5.46-5.68,5.28,5.28,0,0,1,5.3,5.48v28.3c0,9.36,4.52,13.88,12.92,13.88s13.12-4.52,13.12-13.88V88.16a5.22,5.22,0,0,1,5.13-5.48A5.58,5.58,0,0,1,337.9,88.36Z" transform="translate(-37.72 -59.65)"/><path class="cls-1" d="M355.87,123.57a4.87,4.87,0,0,1,6.35.86c4,4.51,8.6,7.21,15.71,7.21,4.19-.11,9.9-1.51,9.9-7.43,0-5.27-5.81-7.1-12.27-8.82C366.3,112.91,356,109.68,356,97.85c0-10.12,9.57-16.47,20.22-16.47,6.14,0,14.21,2.26,18.84,7.86,1.5,1.83,2,4.73-.54,6.78a4.72,4.72,0,0,1-6.14-.22c-2.79-3.44-7.21-5.48-12.59-5.48-4.19,0-9.47,1.29-9.47,7.1.11,5.38,5.82,7.1,12.81,8.93,8.93,2.37,18.51,5.38,18.51,17.43,0,10.55-10.44,16.57-20.66,16.57-8.29,0-16.9-2.58-22.49-9.9C353.18,128.41,352.86,125.5,355.87,123.57Z" transform="translate(-37.72 -59.65)"/><path class="cls-1" d="M415.05,133.61V65.32a5.58,5.58,0,0,1,5.63-5.67,5.23,5.23,0,0,1,5.13,5.49v42.69a.1.1,0,0,0,.17.08l25.54-23.73a5.6,5.6,0,0,1,4-1.72c2.69,0,5.06,2.91,5.06,5.17a5.36,5.36,0,0,1-2,4l-18.11,16.18a.1.1,0,0,0,0,.14l20.16,21.88a6,6,0,0,1,1.72,4.08c0,3.23-3.12,5.28-5.48,5.28a5.32,5.32,0,0,1-3.88-1.83l-20.8-22a.11.11,0,0,0-.15,0l-6.13,5.49a.11.11,0,0,0,0,.08v12.87a5.22,5.22,0,0,1-5.13,5.48A5.57,5.57,0,0,1,415.05,133.61Z" transform="translate(-37.72 -59.65)"/><path class="cls-1" d="M339.86,93.34a11.45,11.45,0,0,1,5,1.07,10.51,10.51,0,0,1,3.73,3,13.36,13.36,0,0,1,2.29,4.42,18.19,18.19,0,0,1,.77,5.34,17.09,17.09,0,0,1-1.38,7,11.74,11.74,0,0,1-4,5,10.84,10.84,0,0,1-6.44,1.86h-9.43a2.37,2.37,0,0,1-2.41-2.41V95.75a2.37,2.37,0,0,1,2.41-2.41Zm-.4,23.07a6.24,6.24,0,0,0,4.06-1.28,7.4,7.4,0,0,0,2.31-3.39,13.91,13.91,0,0,0,.73-4.6,15,15,0,0,0-.41-3.53,9.18,9.18,0,0,0-1.29-3,6.29,6.29,0,0,0-2.2-2,6.47,6.47,0,0,0-3.2-.75h-6.9l.39-.36v19.33l-.23-.44Z" transform="translate(-37.72 -59.65)"/><path class="cls-2" d="M303.11,106.59l19.21-5a3,3,0,0,1,1.46.36,2.69,2.69,0,0,1,1.26,1.5c.71,2,.23,14.33.23,14.33s.05,7.8-7.14,10a13.07,13.07,0,0,1-11.85-1.69,10.44,10.44,0,0,1-3.34-7.62c.14-4.63,0-11.87,0-11.87Z" transform="translate(-37.72 -59.65)"/><polyline class="cls-2" points="284.6 41.94 287.49 41.22 287.49 44.57"/></svg>