<svg id="Livello_1" data-name="Livello 1" xmlns="http://www.w3.org/2000/svg" viewBox="0 0 175.9 165.14"><defs><style>.cls-1{fill:#0d1726;}.cls-2{fill:#e83b68;}</style></defs><path class="cls-1" d="M157.6,33.73v80.61c0,43-25,68.23-68.51,68.23s-67.94-25.31-67.94-68.23V33.73a16,16,0,0,1,15.67-16.3A15.16,15.16,0,0,1,52,32.51c0,.22,0,.43,0,.64v81.19c0,26.86,13,39.83,37.07,39.83s37.64-13,37.64-39.83V33.15a15,15,0,0,1,14.21-15.7l.51,0A16,16,0,0,1,157.6,33.29Z" transform="translate(-21.15 -17.43)"/><path class="cls-1" d="M163.22,48a32.56,32.56,0,0,1,14.34,3.07,30.07,30.07,0,0,1,10.71,8.6,38.52,38.52,0,0,1,6.57,12.68A52.28,52.28,0,0,1,197,87.69a49.17,49.17,0,0,1-3.95,20.09,33.78,33.78,0,0,1-11.48,14.34,31.14,31.14,0,0,1-18.48,5.34h-27a6.8,6.8,0,0,1-6.91-6.69.88.88,0,0,1,0-.23V54.93A6.79,6.79,0,0,1,135.85,48a.89.89,0,0,1,.23,0Zm-1.15,66.18a17.89,17.89,0,0,0,11.65-3.67,21.22,21.22,0,0,0,6.63-9.73,40,40,0,0,0,2.09-13.19,43.21,43.21,0,0,0-1.17-10.13,26.37,26.37,0,0,0-3.71-8.61,18,18,0,0,0-6.31-5.74A18.65,18.65,0,0,0,162.07,61H142.28l1.12-1v55.46l-.66-1.27Z" transform="translate(-21.15 -17.43)"/><path class="cls-2" d="M57.79,86,112.9,71.68a8.65,8.65,0,0,1,4.19,1A7.7,7.7,0,0,1,120.7,77c2,5.74.66,41.11.66,41.11s.15,22.38-20.48,28.69a37.5,37.5,0,0,1-34-4.85,30,30,0,0,1-9.58-21.86c.4-13.28,0-34,0-34Z" transform="translate(-21.15 -17.43)"/><polyline class="cls-2" points="91.75 54.25 100.04 52.19 100.04 61.8"/></svg>